# xmcd CD database file
#
# Track frame offsets:
#	150
#	3408
#	33863
#	54815
#	81820
#	122643
#	138870
#	161478
#	224288
#	271588
#	306648
#	346195
#
# Disc length: 4798 seconds
#
# Revision: 0
# Processed by: cddbd v1.5.2PL0 Copyright (c) Steve Scherf et al.
# Submitted via: CDex 1.51
#
DISCID=9612bc0c
DTITLE=Gene Krupa and Buddy Rich - The Drum Battle at JATP
DYEAR=1952
DGENRE=Jazz
TTITLE0=Introduction
TTITLE1=Idaho
TTITLE2=Sophisticated Lady
TTITLE3=Flying Home
TTITLE4=Drum Boogie
TTITLE5=The Drum Battle
TTITLE6=Perdido
TTITLE7=Bernie's Tune
TTITLE8=Buddy's Blues
TTITLE9=Gene's Blues
TTITLE10=I Never Knew
TTITLE11=Drumming Man (Gene Krupa)
EXTD=YEAR: 1952
EXTT0=
EXTT1=
EXTT2=
EXTT3=
EXTT4=
EXTT5=
EXTT6=
EXTT7=
EXTT8=
EXTT9=
EXTT10=
EXTT11=
PLAYORDER=
